<svg xmlns="http://www.w3.org/2000/svg" viewBox="0 0 263.1 260"><defs><style>.a{fill:#f9e8eb;}</style></defs><title>pattern</title><path class="a" d="M143.3807,248.1553l-.1718-.1088c-5.1677-3.2731-7.5543-7.322-8.0639-10.0185a3.4627,3.4627,0,0,1,.3042-2.4926l.1427-.2091-.04-.2506c-.1923-1.1925-.61-1.8807-1.2772-2.105a1.7769,1.7769,0,0,0-1.6636.47l-.048.0458-.0373.0544a6.8242,6.8242,0,0,0-.7782,5.1283c.6469,3.4264,3.5214,8.4578,9.705,12.3294.2166.1086,1.3361.6175,2.0235-.022a1.1523,1.1523,0,0,0,.1225-.1324c.5177-.66.1744-1.7309-.1407-2.5018Z"/><path class="a" d="M162.8372,237.686l.1123-.1695c3.3792-5.0991,7.4761-7.4018,10.1829-7.8557a3.4628,3.4628,0,0,1,2.4856.3556l.2061.147.2512-.0349c1.1964-.1677,1.8931-.5714,2.1312-1.2335a1.7774,1.7774,0,0,0-.4353-1.6729l-.0449-.0491-.0537-.0382a6.8242,6.8242,0,0,0-5.111-.884c-3.4393.5762-8.5288,3.3465-12.527,9.4489-.113.2142-.6451,1.3229-.02,2.0235a1.1625,1.1625,0,0,0,.13.1251c.6487.5311,1.7269.21,2.504-.089Z"/><path class="a" d="M207.807,201.2947l-.0655.0105-.0616.0237a6.825,6.825,0,0,0-3.551,3.7808c-1.4118,3.1885-1.9,8.9626.9944,15.6594.1165.2123.75,1.2666,1.6785,1.13a1.1852,1.1852,0,0,0,.1759-.04c.8-.25,1.126-1.3262,1.304-2.14l.0424-.1976-.08-.187c-2.3976-5.6277-2.0651-10.3159-.9546-12.8254a3.4632,3.4632,0,0,1,1.665-1.88l.2363-.0913.1092-.229c.5184-1.091.5648-1.8949.143-2.4581A1.7772,1.7772,0,0,0,207.807,201.2947Z"/><path class="a" d="M242.8775,211.5221a1.1749,1.1749,0,0,0,.18.0146c.8384,0,1.47-.9312,1.8814-1.655l.0993-.176-.02-.2023c-.615-6.0861,1.097-10.4632,2.9039-12.5286a3.4624,3.4624,0,0,1,2.1487-1.2993l.2527-.0168.1724-.1863c.8194-.8874,1.1028-1.6411.8676-2.3043a1.7771,1.7771,0,0,0-1.3964-1.0188l-.0657-.01-.0658.0044a6.8241,6.8241,0,0,0-4.5151,2.5533c-2.2962,2.6242-4.48,7.9916-3.7087,15.2463C241.6593,210.1812,241.95,211.3761,242.8775,211.5221Z"/><path class="a" d="M144.5109,126.6828l-.0354.0557a6.8245,6.8245,0,0,0-.6,5.1522c.7658,3.4018,3.8136,8.33,10.1279,11.9845.22.1011,1.3567.5707,2.0217-.0924a1.1576,1.1576,0,0,0,.1175-.1365c.4945-.6772.1143-1.7359-.2275-2.4953l-.0836-.1841-.1753-.1027c-5.2783-3.0915-7.8044-7.0549-8.4075-9.7322a3.463,3.463,0,0,1,.2174-2.5015l.1353-.214-.0485-.2491c-.2338-1.1851-.6756-1.8584-1.35-2.0594a1.7776,1.7776,0,0,0-1.6463.5272Z"/><path class="a" d="M36.6805,215.91l-.1718-.1087c-5.1677-3.2732-7.5545-7.322-8.0639-10.0186a3.4624,3.4624,0,0,1,.3042-2.4925l.1428-.2092-.04-.2506c-.1923-1.1925-.61-1.8806-1.2774-2.105a1.7769,1.7769,0,0,0-1.6634.47l-.0482.0458-.0371.0545a6.825,6.825,0,0,0-.7784,5.1283c.6471,3.4264,3.5218,8.4578,9.7053,12.3294.2165.1086,1.336.6175,2.0234-.0221a1.18,1.18,0,0,0,.1226-.1323c.5174-.66.1745-1.731-.1406-2.5018Z"/><path class="a" d="M71.026,194.928l-.0535-.0382a6.8241,6.8241,0,0,0-5.1113-.884c-3.4389.5762-8.5286,3.3465-12.5268,9.4488-.1132.2142-.6449,1.323-.02,2.0235a1.1888,1.1888,0,0,0,.13.1252c.649.531,1.727.21,2.5043-.089l.1882-.0733.1125-.17c3.379-5.0991,7.4762-7.4017,10.1827-7.8556a3.4635,3.4635,0,0,1,2.4858.3555l.2061.1471.2514-.035c1.196-.1676,1.8928-.5714,2.1309-1.2334a1.7772,1.7772,0,0,0-.4353-1.673Z"/><path class="a" d="M93.0741,218.7785a3.4629,3.4629,0,0,1,2.125,1.3378l.1284.2183.2437.0706c1.1608.3344,1.9614.25,2.4488-.258a1.777,1.777,0,0,0,.2842-1.7052l-.021-.063-.0334-.0567a6.8239,6.8239,0,0,0-4.3073-2.89c-3.3752-.8753-9.152-.42-15.29,3.5235-.1906.1495-1.128.9453-.8425,1.84a1.187,1.187,0,0,0,.0674.1671c.376.7494,1.4914.8957,2.3231.9393l.2019.01.1717-.109C85.7376,218.523,90.4176,218.09,93.0741,218.7785Z"/><path class="a" d="M132.8146,206.3017l.2395-.0837c1.14-.4,1.7434-.9329,1.8464-1.6289a1.7769,1.7769,0,0,0-.7561-1.5545l-.0535-.0393-.06-.0269a6.8242,6.8242,0,0,0-5.1852.1394c-3.2583,1.242-7.7031,4.96-10.4219,11.73-.0686.2323-.3717,1.424.3791,1.9878a1.18,1.18,0,0,0,.1519.0971c.7406.3929,1.7346-.1338,2.4376-.58l.17-.1089.0769-.1883c2.3092-5.6645,5.873-8.7287,8.4372-9.7064a3.463,3.463,0,0,1,2.5071-.1407Z"/><path class="a" d="M96.6847,173.8876l.2362-.0912.1092-.2291c.5184-1.0909.5646-1.8949.1428-2.4581a1.7772,1.7772,0,0,0-1.6362-.5573l-.0655.0105-.0616.0238a6.8243,6.8243,0,0,0-3.5512,3.7808c-1.4116,3.1885-1.9,8.9625.9944,15.6594.1167.2123.75,1.2665,1.6788,1.13a1.1742,1.1742,0,0,0,.1758-.04c.8-.2494,1.126-1.3261,1.3039-2.14l.0425-.1975-.08-.1871c-2.3974-5.6277-2.0651-10.3158-.9542-12.8253A3.4626,3.4626,0,0,1,96.6847,173.8876Z"/><path class="a" d="M149.1414,161.4616l-.0657-.01-.0657.0044a6.8239,6.8239,0,0,0-4.5151,2.5533c-2.2963,2.6242-4.48,7.9916-3.7088,15.2463.0482.2374.3389,1.4323,1.2664,1.5783a1.1759,1.1759,0,0,0,.18.0146c.8385,0,1.4695-.9312,1.8814-1.655l.0994-.176-.02-.2023c-.615-6.0861,1.097-10.4631,2.9039-12.5286a3.4626,3.4626,0,0,1,2.1487-1.2993l.2527-.0168.1724-.1863c.82-.8874,1.1029-1.6411.8677-2.3043A1.7773,1.7773,0,0,0,149.1414,161.4616Z"/><path class="a" d="M165.4725,208.8391a1.1789,1.1789,0,0,0,.1178-.1364c.4942-.6773.1143-1.7359-.2275-2.4954l-.0837-.184-.1756-.1028c-5.2783-3.0915-7.8043-7.0549-8.4072-9.7321a3.4627,3.4627,0,0,1,.2173-2.5016l.1355-.214-.049-.2491c-.2335-1.1851-.6752-1.8583-1.35-2.0593a1.7773,1.7773,0,0,0-1.6464.5272l-.0464.0475-.0351.0557a6.8231,6.8231,0,0,0-.6,5.1522c.7658,3.402,3.8136,8.33,10.1279,11.9845C163.6712,209.0326,164.8077,209.5022,165.4725,208.8391Z"/><path class="a" d="M202.6,176.6743l-.0484-.0447a6.8238,6.8238,0,0,0-4.9606-1.5157c-3.4842.1419-8.88,2.2544-13.61,7.8094-.1389.1984-.8052,1.2319-.2724,2.0051a1.1884,1.1884,0,0,0,.1132.14c.5773.6079,1.6871.4243,2.4956.2246l.1961-.0492.1326-.1541c3.99-4.6369,8.3426-6.41,11.0845-6.5216a3.463,3.463,0,0,1,2.4219.6634l.1861.1717.2538-.0033c1.2078-.0168,1.95-.33,2.2685-.9575a1.7777,1.7777,0,0,0-.2228-1.7143Z"/><path class="a" d="M122.328,163.34a3.4633,3.4633,0,0,1,.5345,2.4535l-.0659.2446.1205.2233c.5748,1.0625,1.1963,1.5743,1.9,1.5663a1.7772,1.7772,0,0,0,1.4156-.9919l.03-.0591.0171-.0636a6.8241,6.8241,0,0,0-.9557-5.0983c-1.7406-3.0215-6.1131-6.824-13.2275-8.44-.24-.0311-1.4648-.1425-1.903.6879a1.179,1.179,0,0,0-.0719.1653c-.2712.7934.4059,1.6917.9575,2.3155l.1344.151.1981.0461C117.37,157.9264,120.9579,160.962,122.328,163.34Z"/><path class="a" d="M15.8822,169.1l-.0537-.0391-.06-.027a6.8242,6.8242,0,0,0-5.1852.1394c-3.2583,1.2419-7.7029,4.96-10.4217,11.73-.0686.2323-.3721,1.424.3789,1.9878a1.1865,1.1865,0,0,0,.1519.0971c.7408.393,1.7344-.1339,2.4378-.58l.17-.109.0766-.1882c2.3093-5.6645,5.8729-8.7287,8.4372-9.7064a3.4622,3.4622,0,0,1,2.507-.1407l.2311.1036.24-.0837c1.14-.4,1.7433-.9329,1.8465-1.6289A1.7776,1.7776,0,0,0,15.8822,169.1Z"/><path class="a" d="M25.8513,145.259l.0993-.176-.02-.2024c-.615-6.0861,1.097-10.4631,2.9039-12.5286a3.4628,3.4628,0,0,1,2.1487-1.2993l.2527-.0168.1724-.1862c.8194-.8874,1.1028-1.6412.8676-2.3043a1.7773,1.7773,0,0,0-1.3964-1.0189l-.0658-.01-.0657.0044a6.8243,6.8243,0,0,0-4.5151,2.5534c-2.2962,2.6241-4.48,7.9916-3.7088,15.2463.0482.2373.3389,1.4322,1.2665,1.5783a1.1738,1.1738,0,0,0,.18.0146C24.8083,146.914,25.4393,145.9828,25.8513,145.259Z"/><path class="a" d="M47.0168,172.0883l-.1753-.1027c-5.2783-3.0916-7.8045-7.055-8.4076-9.7322a3.4637,3.4637,0,0,1,.2175-2.5016l.1353-.2141-.0486-.2489c-.2337-1.1851-.6755-1.8584-1.35-2.06a1.7772,1.7772,0,0,0-1.6462.5273l-.0464.0474-.0354.0557a6.8254,6.8254,0,0,0-.6,5.1524c.7658,3.4018,3.8136,8.33,10.1279,11.9845.22.1009,1.3566.5706,2.0216-.0924a1.1493,1.1493,0,0,0,.1176-.1365c.4945-.6772.1143-1.736-.2275-2.4954Z"/><path class="a" d="M65.7193,148.9882c-.1389.1985-.8052,1.232-.2724,2.0052a1.1879,1.1879,0,0,0,.113.14c.5776.6081,1.6874.4244,2.4957.2247l.1961-.0492.1325-.1541c3.99-4.6369,8.3428-6.41,11.0847-6.5216a3.4631,3.4631,0,0,1,2.4219.6634l.1863.1717.2536-.0033c1.2078-.0168,1.95-.33,2.2683-.9576a1.777,1.777,0,0,0-.2228-1.7142l-.0383-.0542-.0484-.0446a6.8244,6.8244,0,0,0-4.9608-1.5158C75.8447,141.3208,70.449,143.4333,65.7193,148.9882Z"/><path class="a" d="M109.3208,251.19l-.0484-.0447a6.8235,6.8235,0,0,0-4.9606-1.5157c-3.4842.1418-8.88,2.2544-13.61,7.8093-.139.1983-.8052,1.232-.2725,2.0052a1.1778,1.1778,0,0,0,.1133.14c.5773.608,1.6871.4243,2.4956.2247l.1959-.0492.1328-.1542c3.99-4.6368,8.3425-6.41,11.0845-6.5215a3.4624,3.4624,0,0,1,2.4217.6633l.1862.1717.2538-.0032c1.2077-.0169,1.9494-.33,2.2683-.9576a1.777,1.777,0,0,0-.2227-1.7142Z"/><path class="a" d="M119.7192,48.272l.172.1088c5.1677,3.2731,7.5543,7.322,8.0639,10.0185a3.4634,3.4634,0,0,1-.3042,2.4925l-.1428.2091.04.2507c.1921,1.1925.61,1.8806,1.277,2.105a1.7777,1.7777,0,0,0,1.6638-.47l.0478-.0458.0373-.0544a6.8233,6.8233,0,0,0,.7784-5.1283c-.647-3.4265-3.5217-8.4579-9.7053-12.33-.2165-.1085-1.3358-.6175-2.0234.0221a1.178,1.178,0,0,0-.1224.1323c-.5176.66-.1745,1.731.1406,2.5019Z"/><path class="a" d="M85.3736,69.2542l.0536.0382a6.8241,6.8241,0,0,0,5.1113.884c3.4391-.5761,8.5286-3.3464,12.527-9.4488.113-.2142.6449-1.323.02-2.0235a1.1815,1.1815,0,0,0-.13-.1251c-.6486-.5311-1.727-.21-2.5041.0889l-.1884.0733-.1121.17c-3.3792,5.0991-7.4763,7.4018-10.1829,7.8557a3.4635,3.4635,0,0,1-2.4856-.3556l-.2063-.1471-.2513.035c-1.1963.1676-1.8929.5714-2.131,1.2334a1.7775,1.7775,0,0,0,.4353,1.673Z"/><path class="a" d="M63.3258,45.4037a3.4637,3.4637,0,0,1-2.1252-1.3378l-.1284-.2183-.2437-.0706c-1.1608-.3343-1.9614-.25-2.4487.2581a1.7772,1.7772,0,0,0-.2843,1.7051l.021.063.0334.0567a6.8239,6.8239,0,0,0,4.3071,2.89c3.3754.8753,9.1522.42,15.29-3.5234.19-.15,1.1282-.9453.8427-1.84a1.1639,1.1639,0,0,0-.0676-.1671c-.3761-.7494-1.4914-.8957-2.3229-.9393l-.202-.01-.1716.109C70.6621,45.6592,65.9821,46.0922,63.3258,45.4037Z"/><path class="a" d="M27.5543,61.0744c3.2583-1.2419,7.7029-4.96,10.4219-11.73.0686-.2323.3719-1.424-.3791-1.9878a1.18,1.18,0,0,0-.1519-.0971c-.7406-.3929-1.7344.1339-2.4376.58l-.17.109-.0767.1882c-2.309,5.6645-5.8728,8.7287-8.4371,9.7064a3.4622,3.4622,0,0,1-2.507.1407l-.2312-.1036-.2395.0837c-1.14.4-1.7434.9329-1.8464,1.6289a1.7773,1.7773,0,0,0,.7559,1.5546l.0537.0392.06.0269A6.8242,6.8242,0,0,0,27.5543,61.0744Z"/><path class="a" d="M54.1451,91.7969l-.2363.0912-.1091.229c-.5186,1.091-.565,1.895-.1432,2.4582a1.7774,1.7774,0,0,0,1.6364.5573l.0657-.01.0614-.0237a6.8245,6.8245,0,0,0,3.5512-3.7809c1.4116-3.1884,1.9-8.9625-.9944-15.6593-.1167-.2123-.75-1.2667-1.6786-1.13a1.1824,1.1824,0,0,0-.176.0394c-.8.2495-1.1258,1.3263-1.3039,2.14l-.0425.1976.08.1871c2.3976,5.6277,2.0651,10.3159.9544,12.8253A3.4633,3.4633,0,0,1,54.1451,91.7969Z"/><path class="a" d="M7.2585,102.7206l.0657.0095.0657-.0044a6.8241,6.8241,0,0,0,4.5151-2.5533c2.2963-2.6242,4.48-7.9916,3.7088-15.2463-.0482-.2374-.3389-1.4323-1.2665-1.5783a1.1736,1.1736,0,0,0-.18-.0146c-.8385,0-1.4695.9312-1.8814,1.655l-.0994.176.0205.2023c.615,6.0861-1.097,10.4631-2.9039,12.5286a3.4628,3.4628,0,0,1-2.1488,1.2993l-.2527.0168-.1723.1863c-.82.8874-1.1029,1.6411-.8677,2.3043A1.7771,1.7771,0,0,0,7.2585,102.7206Z"/><path class="a" d="M226.42,80.517l.1717.1088c5.1678,3.2731,7.5545,7.322,8.0641,10.0186a3.4627,3.4627,0,0,1-.3042,2.4924l-.1428.2093.04.25c.1924,1.1925.6106,1.8807,1.2774,2.1051a1.7776,1.7776,0,0,0,1.6636-.47l.048-.0458.0372-.0544a6.8237,6.8237,0,0,0,.7782-5.1283c-.6471-3.4264-3.5216-8.4578-9.705-12.3294-.2166-.1086-1.3362-.6175-2.0235.022a1.1705,1.1705,0,0,0-.1225.1324c-.5176.66-.1745,1.7309.1406,2.5018Z"/><path class="a" d="M194.1823,98.6559l-.2062-.1471-.2514.035c-1.1961.1676-1.8929.5714-2.131,1.2335a1.7779,1.7779,0,0,0,.4353,1.6729l.0449.0491.0537.0382a6.8238,6.8238,0,0,0,5.1111.8839c3.4391-.5761,8.5288-3.3464,12.5269-9.4487.1131-.2143.645-1.323.02-2.0236a1.1719,1.1719,0,0,0-.13-.1251c-.6489-.531-1.7269-.21-2.504.089l-.1884.0733-.1125.1695c-3.379,5.0991-7.476,7.4018-10.1827,7.8557A3.4626,3.4626,0,0,1,194.1823,98.6559Z"/><path class="a" d="M170.0258,77.6487a3.4638,3.4638,0,0,1-2.125-1.3377l-.1282-.2184-.2439-.0705c-1.1606-.3344-1.9614-.25-2.4486.258a1.7782,1.7782,0,0,0-.2845,1.7052l.0212.063.0333.0567a6.8237,6.8237,0,0,0,4.3073,2.89c3.3753.8753,9.1521.42,15.29-3.5234.1906-.15,1.128-.9453.8426-1.84a1.1854,1.1854,0,0,0-.0673-.167c-.3762-.7495-1.4914-.8958-2.3233-.9393l-.2018-.01-.1716.109C177.3622,77.9042,172.6824,78.3373,170.0258,77.6487Z"/><path class="a" d="M130.2855,90.1255l-.24.0838c-1.14.4-1.7433.9328-1.8465,1.6289a1.7771,1.7771,0,0,0,.7563,1.5545l.0535.0392.06.0269a6.8242,6.8242,0,0,0,5.1852-.1394c3.2585-1.2419,7.7031-4.96,10.4219-11.73.0686-.2322.3719-1.424-.3791-1.9878a1.1727,1.1727,0,0,0-.1519-.0971c-.7406-.3929-1.7344.1339-2.4376.58l-.17.1089-.0767.1882c-2.3094,5.6645-5.873,8.7288-8.4371,9.7065a3.4629,3.4629,0,0,1-2.5071.1406Z"/><path class="a" d="M169.3348,126.3617l-.2362.0912-.1092.229c-.5186,1.091-.5648,1.895-.143,2.4582a1.777,1.777,0,0,0,1.6362.5573l.0657-.01.0614-.0237a6.8235,6.8235,0,0,0,3.5512-3.7809c1.4116-3.1884,1.9-8.9625-.9944-15.6593-.1167-.2124-.75-1.2667-1.6786-1.13a1.1824,1.1824,0,0,0-.176.04c-.8.2494-1.1258,1.3262-1.3039,2.14l-.0425.1976.08.1871c2.3976,5.6277,2.0651,10.3159.9544,12.8253A3.4633,3.4633,0,0,1,169.3348,126.3617Z"/><path class="a" d="M113.9586,134.9657l.0658.01.0657-.0044a6.8241,6.8241,0,0,0,4.5151-2.5533c2.2963-2.6242,4.48-7.9916,3.7088-15.2463-.0482-.2374-.3389-1.4323-1.2665-1.5783a1.1736,1.1736,0,0,0-.18-.0146c-.8385,0-1.47.9312-1.8815,1.655l-.0993.176.02.2023c.6149,6.0861-1.097,10.4631-2.904,12.5286a3.4624,3.4624,0,0,1-2.1487,1.2993l-.2527.0168-.1723.1863c-.82.8874-1.1029,1.6411-.8677,2.3043A1.7771,1.7771,0,0,0,113.9586,134.9657Z"/><path class="a" d="M99.649,87.4957c-.22-.101-1.3566-.5707-2.0214.0924a1.1776,1.1776,0,0,0-.1178.1364c-.4943.6773-.1143,1.736.2275,2.4954l.0836.1841.1755.1028c5.2783,3.0915,7.8043,7.0549,8.4074,9.732a3.4619,3.4619,0,0,1-.2175,2.5017l-.1353.214.0488.2491c.2337,1.185.6752,1.8583,1.35,2.0593a1.7773,1.7773,0,0,0,1.6462-.5272l.0464-.0475.0352-.0557a6.8233,6.8233,0,0,0,.6-5.1523C109.0112,96.0783,105.9634,91.15,99.649,87.4957Z"/><path class="a" d="M76.7819,111.1338l-.1959.0492-.1325.1542c-3.99,4.6368-8.3428,6.41-11.0845,6.5215a3.4627,3.4627,0,0,1-2.4219-.6633l-.1863-.1717-.2538.0032c-1.2076.0169-1.9493.33-2.2683.9576a1.7778,1.7778,0,0,0,.2228,1.7143l.0385.0541.0482.0447a6.8248,6.8248,0,0,0,4.9608,1.5158c3.484-.1419,8.88-2.2545,13.6094-7.8094.1391-.1984.8052-1.232.2724-2.0052a1.1772,1.1772,0,0,0-.1132-.14C78.7,110.7505,77.5905,110.9342,76.7819,111.1338Z"/><path class="a" d="M148.5723,20.6167l.0655-.0105.0614-.0237a6.8239,6.8239,0,0,0,3.5514-3.7808c1.4116-3.1885,1.9-8.9626-.9944-15.6594-.1169-.2123-.75-1.2666-1.6787-1.13a1.1936,1.1936,0,0,0-.1761.04c-.8.2494-1.1258,1.3261-1.3037,2.14l-.0425.1976.08.1871c2.3974,5.6276,2.0651,10.3158.9542,12.8253a3.4629,3.4629,0,0,1-1.6648,1.88l-.2363.0913-.1092.229c-.5184,1.091-.5648,1.895-.143,2.4581A1.7773,1.7773,0,0,0,148.5723,20.6167Z"/><path class="a" d="M100.5377,28.2048l.0657.01.0658-.0044a6.8237,6.8237,0,0,0,4.5151-2.5533c2.2962-2.6242,4.48-7.9916,3.7087-15.2463-.0482-.2374-.3389-1.4322-1.2664-1.5783a1.1759,1.1759,0,0,0-.18-.0146c-.8384,0-1.4695.9312-1.8814,1.655l-.0993.176.02.2023c.615,6.0861-1.097,10.4632-2.9039,12.5286a3.4624,3.4624,0,0,1-2.1487,1.2993l-.2527.0168-.1724.1863c-.8195.8874-1.1028,1.6411-.8677,2.3043A1.7773,1.7773,0,0,0,100.5377,28.2048Z"/><path class="a" d="M65.6976,6.7431c.1388-.1983.8052-1.232.2724-2.0052a1.1872,1.1872,0,0,0-.1132-.14C65.28,3.99,64.17,4.1733,63.3612,4.373l-.1961.0491-.1326.1542c-3.99,4.6368-8.3425,6.4095-11.0847,6.5216a3.4632,3.4632,0,0,1-2.4217-.6634l-.1862-.1717-.2536.0032c-1.2079.0169-1.95.33-2.2685.9576a1.7773,1.7773,0,0,0,.2227,1.7143l.0384.0541.0485.0447a6.8241,6.8241,0,0,0,4.9607,1.5158C55.5722,14.4106,60.9682,12.298,65.6976,6.7431Z"/><path class="a" d="M247.2177,127.3277l.0537.0392.06.027a6.8247,6.8247,0,0,0,5.1852-.1394c3.2582-1.242,7.703-4.96,10.4217-11.73.0687-.2323.372-1.424-.3788-1.9878a1.2015,1.2015,0,0,0-.152-.0971c-.7407-.3931-1.7346.1338-2.4375.58l-.17.1089-.0769.1883c-2.309,5.6645-5.8728,8.7287-8.4371,9.7063a3.4628,3.4628,0,0,1-2.507.1408l-.2311-.1036-.24.0837c-1.14.4-1.7434.9329-1.8463,1.6289A1.7775,1.7775,0,0,0,247.2177,127.3277Z"/><path class="a" d="M237.2486,151.1682l-.0993.1761.02.2023c.615,6.0861-1.097,10.4631-2.9039,12.5286a3.4628,3.4628,0,0,1-2.1487,1.2993l-.2527.0168-.1724.1862c-.8194.8874-1.1028,1.6412-.8677,2.3043a1.7776,1.7776,0,0,0,1.3965,1.0189l.0657.01.0658-.0044a6.8246,6.8246,0,0,0,4.5151-2.5533c2.2962-2.6242,4.48-7.9917,3.7087-15.2463-.0482-.2374-.3388-1.4323-1.2664-1.5784a1.1749,1.1749,0,0,0-.18-.0146C238.2916,149.5132,237.6605,150.4444,237.2486,151.1682Z"/><path class="a" d="M216,124.155l.0836.1839.1755.1028c5.2783,3.0916,7.8044,7.055,8.4073,9.7322a3.4639,3.4639,0,0,1-.2172,2.5016l-.1355.214.0487.249c.2336,1.1851.6754,1.8584,1.35,2.0594a1.7776,1.7776,0,0,0,1.6463-.5272l.0463-.0475.0353-.0557a6.8247,6.8247,0,0,0,.6-5.1523c-.7658-3.4019-3.8136-8.33-10.1279-11.9845-.22-.101-1.3567-.5707-2.0217.0923a1.1665,1.1665,0,0,0-.1175.1366C215.2775,122.3368,215.6577,123.3955,216,124.155Z"/><path class="a" d="M197.3807,147.439c.1388-.1984.8052-1.2319.2724-2.0052a1.1872,1.1872,0,0,0-.1132-.14c-.5773-.608-1.6871-.4244-2.4956-.2246l-.1961.0491-.1326.1542c-3.99,4.6369-8.3425,6.41-11.0847,6.5216a3.4622,3.4622,0,0,1-2.4217-.6635l-.1862-.1716-.2536.0033c-1.2079.0168-1.95.33-2.2685.9575a1.7774,1.7774,0,0,0,.2227,1.7143l.0384.0542.0485.0446a6.8241,6.8241,0,0,0,4.9607,1.5158C187.2554,155.1064,192.6511,152.994,197.3807,147.439Z"/><path class="a" d="M207.2379,60.45l.0657.0095.0657-.0044a6.8235,6.8235,0,0,0,4.5151-2.5533c2.2963-2.6242,4.48-7.9916,3.7088-15.2463-.0482-.2374-.3389-1.4322-1.2664-1.5783a1.1759,1.1759,0,0,0-.18-.0146c-.8385,0-1.4695.9312-1.8814,1.655l-.0994.176.02.2023c.615,6.0861-1.097,10.4632-2.9039,12.5286a3.4629,3.4629,0,0,1-2.1487,1.2993l-.2527.0168-.1724.1863c-.82.8874-1.1029,1.6411-.8677,2.3043A1.7773,1.7773,0,0,0,207.2379,60.45Z"/><path class="a" d="M191.1,15.8881l.1754.1028c5.2784,3.0915,7.8045,7.0549,8.4076,9.7322a3.4634,3.4634,0,0,1-.2175,2.5015l-.1355.214.0488.2491c.2337,1.1851.6754,1.8583,1.35,2.0593a1.7768,1.7768,0,0,0,1.6462-.5272l.0464-.0475.0354-.0557a6.8254,6.8254,0,0,0,.6-5.1522c-.7658-3.4019-3.8136-8.33-10.1281-11.9845-.22-.1011-1.3565-.5707-2.0215.0924a1.1586,1.1586,0,0,0-.1176.1365c-.4944.6772-.1143,1.7358.2275,2.4953Z"/><path class="a" d="M153.7792,45.2371l.0484.0447a6.8238,6.8238,0,0,0,4.9606,1.5157c3.484-.1419,8.88-2.2544,13.61-7.8093.1389-.1984.8052-1.232.2724-2.0052a1.1685,1.1685,0,0,0-.1132-.14c-.5773-.6079-1.6871-.4243-2.4956-.2246l-.196.0492-.1327.1542c-3.99,4.6368-8.3426,6.41-11.0845,6.5215a3.4625,3.4625,0,0,1-2.4219-.6634l-.1862-.1716-.2537.0032c-1.2078.0168-1.9495.33-2.2683.9575a1.7771,1.7771,0,0,0,.2228,1.7143Z"/></svg>