<svg xmlns="http://www.w3.org/2000/svg" viewBox="0 0 240 78.2"><defs><style>.a{fill:#476667;}.b{fill:#c28283;}</style></defs><title>logo</title><path class="a" d="M90.027,27.1894l.0275.0009c1.6042,0,2.7226-.9233,2.7226-1.752a.9988.9988,0,0,0-.5555-.8792,2.7465,2.7465,0,0,0-1.3425-.276h-.3122l-.0753.3031a3.131,3.131,0,0,1-.5831.7741c-.4554.5077-.8494.9462-.6676,1.3934A.8557.8557,0,0,0,90.027,27.1894Z"/><path class="a" d="M164.7476,27.1894l.0276.0009c1.6042,0,2.7226-.9233,2.7226-1.752a.9988.9988,0,0,0-.5555-.8792,2.7468,2.7468,0,0,0-1.3425-.276h-.3122l-.0753.3031a3.1237,3.1237,0,0,1-.5831.7741c-.4555.5077-.8485.9462-.6676,1.3939A.8568.8568,0,0,0,164.7476,27.1894Z"/><path class="a" d="M192.5981,33.6084a.817.817,0,0,0-.8943.0244l-.0349.0215c-7.6849,5.3107-16.4973,5.8842-19.93,5.8842-2.6712,0-4.4967-.4862-5.4241-1.4453a2.955,2.955,0,0,1-.7732-2.2778,5.58,5.58,0,0,1,.1864-1.3792.7589.7589,0,0,0-.1552-1.022c-.4462-.3214-1.2451-.1-1.8594.5152l-.0184.0229c-2.3231,1.5427-5.9208,3.2961-13.1254,3.3415-5.4.0436-9.1862-.9752-11.2394-3.0123.97-1.224,2.0211-2.876,2.0211-4.2841,0-2.1464-1.0973-3.3778-3.011-3.3778-1.9852,0-2.8732,1.8117-2.8732,3.6069a7.559,7.559,0,0,0,1.1754,4.0835c-2.7189,2.9085-6.64,5.4117-8.5186,5.4117-2.18,0-2.5959-5.1289-2.7189-9.5333.0376-.2745.1184-1.1978-.4059-1.5528a.94.94,0,0,0-1.0587.0832,78.7306,78.7306,0,0,1-6.7951,4.8341l-.0257.0216a.9886.9886,0,0,0-.1726.08c-7.6839,5.3107-16.4973,5.8842-19.93,5.8842-2.6712,0-4.4958-.4862-5.4241-1.4458a2.9544,2.9544,0,0,1-.7732-2.2773,5.5536,5.5536,0,0,1,.1883-1.3792.7481.7481,0,0,0-.135-1.0032,1.4374,1.4374,0,0,0-1.6923.3393c-11.8519,7.8185-27.6292,11.951-45.6269,11.951A55.5271,55.5271,0,0,1,23.7716,42.03c4.04-3.9122,8.1541-9.6893,12.1374-15.2828l1.2636-1.7846c1.0082-1.4279,2.0238-2.8654,3.06-4.2823,3.8125-.0868,7.2945-.0868,10.1016-.0868,17.54,0,23.4429-9.3041,23.4429-13.5483,0-2.6129-1.2837-6.9966-9.8831-6.9966-9.5369,0-17.8388,9.3079-24.7119,18.4669C12.8169,19.1157,0,24.3405,0,34.4867a8.4705,8.4705,0,0,0,.5,2.9738,1.0887,1.0887,0,0,0,.8586.5973c.6465-.0078,1.02-.803,1.1432-1.0642l.0661-.141-.0468-.1488a7.4323,7.4323,0,0,1-.348-2.2171c0-8.2514,11.89-12.8536,35.3452-13.6828-1.257,1.7043-2.4416,3.3613-3.36,4.6537l-.4178.5826C29.4886,31.9611,25.47,37.5578,21.4788,41.1734c-3.1882-1.2033-5.662-2.0472-8.16-2.0472-5.2909,0-6.0806,2.5183-6.0806,4.0192,0,1.8332,1.1184,4.0191,6.4461,4.0191,2.6647,0,5.3736-1.15,8.2752-3.5164a54.8013,54.8013,0,0,0,21.5945,4.2492c17.4486,0,32.6263-3.79,45.1237-11.266a4.8176,4.8176,0,0,0,1.3479,3.0536c1.3545,1.3646,3.6409,2.028,6.9916,2.028a41.462,41.462,0,0,0,21.0958-6.1959l.0992-.05c1.9844-1.25,3.5022-2.3287,5.0614-3.5022.3774,6.5912,2.0082,9.9318,4.85,9.9318,2.5151,0,6.8832-3.0073,9.8106-6.0136,2.5022,2.38,6.6564,3.5862,12.3642,3.5862.0909,0,.1836,0,.2764-.0009,6.559-.0395,10.4212-1.5689,12.8215-2.8613a4.8263,4.8263,0,0,0,1.3507,3.0789c1.3535,1.3641,3.6409,2.0275,6.9916,2.0275a41.4575,41.4575,0,0,0,21.105-6.2019l.1616-.1033.0212-.1905C193.0582,34.9275,193.12,33.956,192.5981,33.6084Zm-54.2575-4.8148c.8274,0,.8375,1.1547.8375,1.2038a4.9789,4.9789,0,0,1-1.0487,2.533,5.69,5.69,0,0,1-.4885-2.3039C137.6409,29.89,137.6914,28.7936,138.3406,28.7936ZM41.9383,18.455C48.1328,10.3193,55.5476,2.2227,63.8945,2.2227c5.044,0,7.7106,1.6675,7.7106,4.8226,0,3.5633-5.3562,11.3739-21.27,11.3739C47.9326,18.4192,45.0273,18.4192,41.9383,18.455ZM13.3192,41.3006a18.1637,18.1637,0,0,1,6.2349,1.4182A10.09,10.09,0,0,1,13.6847,44.99c-2.595,0-4.2726-.724-4.2726-1.8447C9.4121,41.6206,11.5369,41.3006,13.3192,41.3006Z"/><path class="a" d="M239.4848,33.5584a.9961.9961,0,0,0-1.0109.1979c-6.8438,4.7721-12.17,5.4158-16.4789,5.4158a6.4824,6.4824,0,0,1-1.2259-.124,6.6459,6.6459,0,0,0,.2516-1.8585c0-2.3053-2.572-4.0541-4.841-5.5972-1.674-1.1382-3.4058-2.3154-3.4058-3.336a1.4119,1.4119,0,0,1,.2957-.7709l.5032-.5114a1.0271,1.0271,0,0,0,.1111-.9821c-.1938-.3981-.6593-.612-1.4242-.6542l-.1782-.01-.1267.1262A72.8009,72.8009,0,0,1,201.58,33.5983l-.146.0919-.0339.1684c-.11.5533-.2021,1.3265.2763,1.6547a.8988.8988,0,0,0,.9679-.0454,81.365,81.365,0,0,0,8.2073-6.0173c.6519,1.4825,2.45,2.6767,4.1955,3.8364,1.8677,1.2406,3.8,2.5238,3.8,3.9026a4.5548,4.5548,0,0,1-.1708,1.2121,29.843,29.843,0,0,1-2.8695-1.4463c-1.9522-1.0725-3.9715-2.1813-6.1339-2.1813-2.9063,0-6.0348,1.5588-6.0348,4.9811,0,2.4747,1.8255,5.1188,6.9512,5.1188,2.9907,0,7.1366-1.01,9.1907-3.8323a8.5694,8.5694,0,0,0,2.2158.3044c6.346,0,11.6737-1.7466,17.814-5.8392l.1625-.1093.0138-.1956C240.0257,34.6245,240.0183,33.8256,239.4848,33.5584Zm-29.8127,3.39c1.7878,0,3.5591.9829,5.4332,2.0233.7989.4435,1.62.8994,2.4683,1.292-1.6731,1.67-4.7171,2.4357-6.9851,2.4357-2.9017,0-4.7777-1.1557-4.7777-2.9444C205.8108,37.6836,207.8907,36.9486,209.6721,36.9486Z"/><path class="b" d="M201.4684,14.62c.5152-.5578.6933-1.0317.5455-1.4485a1.1172,1.1172,0,0,0-.8779-.64l-.0413-.006-.0413.0028a4.2894,4.2894,0,0,0-2.8383,1.6051c-1.4435,1.65-2.8163,5.0237-2.3315,9.5842.03.1492.2131.9.7962.9922a.7464.7464,0,0,0,.1129.0091c.5271,0,.9238-.5853,1.1827-1.04l.0624-.1107-.0128-.1272c-.3866-3.8258.69-6.5774,1.8255-7.8758a2.1771,2.1771,0,0,1,1.3507-.8168l.1589-.0105Z"/><path class="a" d="M41.99,77.9914V68.6751H43.4v3.9927l3.6734-3.9927h1.7434L45.37,72.3884l3.527,5.603H47.18l-2.8217-4.5251L43.4,74.5043v3.4871Z"/><path class="a" d="M51.4525,77.9914V68.6751h1.4106v9.3163Z"/><path class="a" d="M58.2664,77.9914V69.82h-2.755V68.6751H62.419V69.82H59.6774v8.1717Z"/><path class="a" d="M68.8075,78.1513a4.54,4.54,0,0,1-2.3889-.6057,4.049,4.049,0,0,1-1.55-1.69,6.0679,6.0679,0,0,1,0-5.0307,4.0968,4.0968,0,0,1,1.55-1.697,4.5064,4.5064,0,0,1,2.3889-.6122,4.262,4.262,0,0,1,2.6748.7989A3.5609,3.5609,0,0,1,72.8,71.55H71.23a2.2136,2.2136,0,0,0-.7985-1.2911A2.584,2.584,0,0,0,68.794,69.78a2.7517,2.7517,0,0,0-2.209.9514,3.9005,3.9005,0,0,0-.8119,2.6155,3.8512,3.8512,0,0,0,.8119,2.5951,2.759,2.759,0,0,0,2.209.9449,2.695,2.695,0,0,0,1.6372-.4523,2.0848,2.0848,0,0,0,.7985-1.2378H72.8a3.4743,3.4743,0,0,1-1.3179,2.1692A4.3108,4.3108,0,0,1,68.8075,78.1513Z"/><path class="a" d="M75.6877,77.9914V68.6751h1.4106v3.9927h4.5122V68.6751h1.4106v9.3163H81.6105V73.8258H77.0983v4.1656Z"/><path class="a" d="M86.2418,77.9914V68.6751h5.9228V69.82H87.6524v2.9014h4.1127v1.1177H87.6524v3.008h4.5122v1.1446Z"/><path class="a" d="M95.1721,77.9914V68.6751h1.4106l4.6716,7.0137V68.6751h1.4106v9.3163h-1.4106l-4.6716-7.0137v7.0137Z"/><path class="a" d="M113.4456,78.1513a3.9965,3.9965,0,0,1-1.7369-.3527,2.74,2.74,0,0,1-1.1515-.9917,2.6857,2.6857,0,0,1-.4125-1.4907,2.7793,2.7793,0,0,1,.526-1.6636,3.5853,3.5853,0,0,1,1.55-1.1711,3.54,3.54,0,0,1-.6122-.905,2.2966,2.2966,0,0,1-.1862-.9315,1.9729,1.9729,0,0,1,.6654-1.5241,2.6473,2.6473,0,0,1,1.85-.6057,2.8349,2.8349,0,0,1,1.3309.2929,2.0908,2.0908,0,0,1,.8518.7855,2.0528,2.0528,0,0,1,.2794,1.1177H115.029a.9587.9587,0,0,0-.3257-.8119,1.1913,1.1913,0,0,0-.7786-.2794,1.1588,1.1588,0,0,0-.8253.2864.95.95,0,0,0-.3063.7252,1.4773,1.4773,0,0,0,.22.7586,4.6321,4.6321,0,0,0,.6723.8383l2.768,2.7818q.3327-.5055.7187-1.1979l.3462-.652h1.4639l-.5325.9713a12.9144,12.9144,0,0,1-1.0778,1.7836l2.076,2.0761h-1.73L116.5865,76.86a4.192,4.192,0,0,1-3.1409,1.2911Zm-1.93-2.9148a1.6063,1.6063,0,0,0,.5389,1.2377,2.02,2.02,0,0,0,1.4176.4926,2.92,2.92,0,0,0,1.1845-.2331,3.2555,3.2555,0,0,0,1.038-.7651L113.0461,73.32a2.7574,2.7574,0,0,0-1.1511.8054A1.7569,1.7569,0,0,0,111.5155,75.2365Z"/><path class="a" d="M130.7469,78.1513a4.54,4.54,0,0,1-2.3889-.6057,4.05,4.05,0,0,1-1.5506-1.69,6.0689,6.0689,0,0,1,0-5.0307,4.0977,4.0977,0,0,1,1.5506-1.697,4.5064,4.5064,0,0,1,2.3889-.6122,4.262,4.262,0,0,1,2.6748.7989A3.5609,3.5609,0,0,1,134.74,71.55h-1.5705a2.2136,2.2136,0,0,0-.7985-1.2911,2.5842,2.5842,0,0,0-1.6372-.4792,2.7517,2.7517,0,0,0-2.209.9514,3.9005,3.9005,0,0,0-.8119,2.6155,3.8512,3.8512,0,0,0,.8119,2.5951,2.759,2.759,0,0,0,2.209.9449,2.6952,2.6952,0,0,0,1.6372-.4523,2.0848,2.0848,0,0,0,.7985-1.2378H134.74a3.4743,3.4743,0,0,1-1.3179,2.1692A4.3108,4.3108,0,0,1,130.7469,78.1513Z"/><path class="a" d="M136.8559,77.9914l3.4334-9.3163h1.5441l3.407,9.3163h-1.49l-.7989-2.2758h-3.8059l-.7989,2.2758Zm2.6883-3.394h3.0079l-1.5037-4.2452Z"/><path class="a" d="M149.0468,77.9914V69.82h-2.755V68.6751h6.9075V69.82h-2.7415v8.1717Z"/><path class="a" d="M155.8477,77.9914V68.6751h5.9228V69.82h-4.5122v2.9014h4.1128v1.1177h-4.1128v3.008h4.5122v1.1446Z"/><path class="a" d="M164.778,77.9914V68.6751h3.2077a3.9056,3.9056,0,0,1,1.8166.3726,2.4749,2.4749,0,0,1,1.0579,1.0051,2.8762,2.8762,0,0,1,.3462,1.4037,2.8151,2.8151,0,0,1-.4592,1.57,2.5405,2.5405,0,0,1-1.4306,1.0116L171.3,77.9914h-1.6372l-1.81-3.7531h-1.6637v3.7531Zm1.4106-4.818h1.717a1.8662,1.8662,0,0,0,1.4041-.4657,1.6779,1.6779,0,0,0,.4458-1.2109,1.6259,1.6259,0,0,0-.4389-1.1914,1.9365,1.9365,0,0,0-1.424-.4458h-1.704Z"/><path class="a" d="M174.2009,77.9914V68.6751h1.4106v9.3163Z"/><path class="a" d="M178.8322,77.9914V68.6751h1.4106l4.6716,7.0137V68.6751h1.4106v9.3163h-1.4106l-4.6716-7.0137v7.0137Z"/><path class="a" d="M193.5917,78.1513a4.3423,4.3423,0,0,1-2.3026-.5992,4.06,4.06,0,0,1-1.53-1.6766,5.5008,5.5008,0,0,1-.5459-2.5158,5.4442,5.4442,0,0,1,.5589-2.5154,4.17,4.17,0,0,1,1.59-1.71,4.6593,4.6593,0,0,1,2.4426-.6191,4.42,4.42,0,0,1,2.6618.7721,3.5324,3.5324,0,0,1,1.3837,2.1293h-1.5969a2.0576,2.0576,0,0,0-.8383-1.171,2.806,2.806,0,0,0-1.61-.4259,2.92,2.92,0,0,0-2.3027.9449,4.4866,4.4866,0,0,0-.0134,5.204,2.7894,2.7894,0,0,0,2.1961.9315,2.6429,2.6429,0,0,0,2.083-.7855,3.5345,3.5345,0,0,0,.8184-2.09h-2.5288V72.9338H198.01v5.0576h-1.291l-.12-1.3707a3.3159,3.3159,0,0,1-1.1715,1.1311A3.7089,3.7089,0,0,1,193.5917,78.1513Z"/></svg>